<svg width="22" height="13" viewBox="0 0 22 13" fill="none" xmlns="http://www.w3.org/2000/svg">
<path d="M8.34203 12.782L6.41103 12.264L7.19803 9.325C6.01999 8.89053 4.92514 8.25736 3.96103 7.453L1.80803 9.607L0.393025 8.192L2.54703 6.039C1.3311 4.58276 0.514113 2.83576 0.176025 0.969L2.14403 0.610001C2.90303 4.812 6.57903 8 11 8C15.42 8 19.097 4.812 19.856 0.610001L21.824 0.968C21.4864 2.83502 20.6697 4.58237 19.454 6.039L21.607 8.192L20.192 9.607L18.039 7.453C17.0749 8.25736 15.9801 8.89053 14.802 9.325L15.589 12.265L13.658 12.782L12.87 9.842C11.6324 10.0541 10.3677 10.0541 9.13003 9.842L8.34203 12.782Z" fill="black"/>
</svg>
